<?xml version="1.0" standalone="no"?>
<!DOCTYPE svg PUBLIC "-//W3C//DTD SVG 1.1//EN" "http://www.w3.org/Graphics/SVG/1.1/DTD/svg11.dtd" >
<!--
2013-9-30: Created.
-->
<svg>
<metadata>
Created by iconfont
</metadata>
<defs>

<font id="iconfont" horiz-adv-x="1024" >
  <font-face
    font-family="iconfont"
    font-weight="500"
    font-stretch="normal"
    units-per-em="1024"
    ascent="896"
    descent="-128"
  />
    <missing-glyph />
    
    <glyph glyph-name="warningbg" unicode="&#58929;" d="M688.789333 810.517333 335.189333 810.517333 85.162667 560.704 85.162667 207.402667 335.189333-42.410667 688.789333-42.410667 938.816 207.402667 938.816 560.704 688.789333 810.517333ZM510.378667 149.632C484.288 149.632 463.146667 170.752 463.146667 196.821333 463.146667 222.890667 484.288 244.032 510.378667 244.032 536.490667 244.032 557.632 222.890667 557.632 196.821333 557.632 170.752 536.490667 149.632 510.378667 149.632ZM557.632 338.453333 463.146667 338.453333 463.146667 668.885333 557.632 668.885333 557.632 338.453333Z"  horiz-adv-x="1024" />

    
    <glyph glyph-name="i-left" unicode="&#58919;" d="M379.104 386.656c4.647-3.465 7.707-5.211 10.102-7.614 111.882-111.777 223.68-223.642 335.584-335.395 11.498-11.482 17.601-24.432 14.060-40.893-6.549-30.444-42.724-43.056-66.702-23.207-2.638 2.179-5.006 4.691-7.43 7.116-122.147 122.131-244.291 244.268-366.434 366.411-22.218 22.218-22.236 44.944-0.033 67.143 122.749 122.755 245.548 245.451 368.185 368.316 12.166 12.191 26.062 17.589 42.734 13.327 28.957-7.395 40.247-42.511 21.462-65.827-2.323-2.881-5.046-5.457-7.669-8.083-111.214-111.228-222.435-222.459-333.706-333.634-2.407-2.404-5.469-4.166-10.148-7.66z"  horiz-adv-x="1024" />

    
    <glyph glyph-name="info" unicode="&#59088;" d="M512 810.666667C277.333333 810.666667 85.333333 618.666667 85.333333 384s192-426.666667 426.666667-426.666667c234.666667 0 426.666667 192 426.666667 426.666667S746.666667 810.666667 512 810.666667zM554.666667 170.666667l-85.333333 0 0 256 85.333333 0L554.666667 170.666667zM554.666667 512l-85.333333 0L469.333333 597.333333l85.333333 0L554.666667 512z"  horiz-adv-x="1024" />

    
    <glyph glyph-name="chanpin" unicode="&#58930;" d="M832 160l-249.6-153.6c-19.2-12.8-38.4 0-38.4 25.6L544 390.4c0 6.4 6.4 19.2 12.8 25.6l249.6 153.6c19.2 12.8 38.4 0 38.4-25.6l0-364.8C844.8 172.8 838.4 160 832 160zM192 160l249.6-153.6c19.2-12.8 38.4 0 38.4 25.6L480 390.4c0 6.4-6.4 19.2-12.8 25.6L217.6 569.6C204.8 576 179.2 563.2 179.2 544l0-364.8C179.2 172.8 185.6 160 192 160zM505.6 768 217.6 659.2c-12.8-6.4-12.8-25.6 0-32L505.6 448C512 448 518.4 448 518.4 448l294.4 179.2c12.8 6.4 12.8 25.6 0 32L518.4 768C512 768 512 768 505.6 768z"  horiz-adv-x="1024" />

    
    <glyph glyph-name="d-down" unicode="&#58946;" d="M511.98 206.801l-438.283 437.454c-16.715 15.276-43.804 15.276-60.514 0-16.717-15.28-16.717-40.048 0-55.325l466.392-465.512c8.916-8.147 20.739-11.618 32.408-11.075 11.67-0.543 23.496 2.928 32.405 11.075l466.386 465.51c16.72 15.277 16.72 40.045 0 55.325-16.705 15.276-43.798 15.276-60.511 0l-438.283-437.452z"  horiz-adv-x="1039" />

    
    <glyph glyph-name="nav" unicode="&#58923;" d="M888.838 576.225l-751.1 0c-23.944 0-43.339 19.553-43.339 43.646l0 40.012c0 24.093 19.395 43.645 43.339 43.645l751.1 0c23.923 0 43.334-19.554 43.334-43.645l0-40.012c-0.001-24.093-19.411-43.646-43.333-43.646l0 0zM888.838 308.491l-751.1 0c-23.944 0-43.339 19.533-43.339 43.64l0 39.998c0 24.115 19.395 43.647 43.339 43.647l751.1 0c23.923 0 43.334-19.533 43.334-43.647l0-39.998c-0.001-24.107-19.411-43.64-43.333-43.64l0 0zM888.838 19.83l-751.1 0c-23.944 0-43.339 19.532-43.339 43.627l0 40.017c0 24.093 19.395 43.641 43.339 43.641l751.1 0c23.923 0 43.334-19.548 43.334-43.641l0-40.017c-0.001-24.094-19.411-43.627-43.333-43.627l0 0z"  horiz-adv-x="1024" />

    
    <glyph glyph-name="Water" unicode="&#59001;" d="M682.666667 42.666667c-56.888889 0-113.777778 56.888889-170.666667 56.888889s-113.777778-56.888889-170.666667-56.888889-113.777778 56.888889-170.666666 56.888889c-36.977778 0-76.8-25.6-113.777778-42.666667v-113.777778c36.977778 17.066667 76.8 42.666667 113.777778 42.666667 56.888889 0 113.777778-56.888889 170.666666-56.888889s113.777778 56.888889 170.666667 56.888889 113.777778-56.888889 170.666667-56.888889 113.777778 56.888889 170.666666 56.888889c36.977778 0 76.8-25.6 113.777778-42.666667v113.777778c-36.977778 17.066667-76.8 42.666667-113.777778 42.666667-56.888889 0-113.777778-56.888889-170.666666-56.888889zM853.333333 327.111111c-56.888889 0-113.777778-56.888889-170.666666-56.888889s-113.777778 56.888889-170.666667 56.888889-113.777778-56.888889-170.666667-56.888889-113.777778 56.888889-170.666666 56.888889c-36.977778 0-76.8-25.6-113.777778-42.666667v-113.777777c36.977778 17.066667 76.8 42.666667 113.777778 42.666666 56.888889 0 113.777778-56.888889 170.666666-56.888889s113.777778 56.888889 170.666667 56.888889 113.777778-56.888889 170.666667-56.888889 113.777778 56.888889 170.666666 56.888889c36.977778 0 76.8-25.6 113.777778-42.666666v113.777777c-36.977778 17.066667-76.8 42.666667-113.777778 42.666667zM654.222222 526.222222c0 79.644444-142.222222 312.888889-142.222222 312.888889s-142.222222-233.244444-142.222222-312.888889 62.577778-142.222222 142.222222-142.222222 142.222222 62.577778 142.222222 142.222222z"  horiz-adv-x="1024" />

    
    <glyph glyph-name="aleftmenubuttonwarning" unicode="&#58944;" d="M652.144854 80.974475c-2.491751-50.584072-29.958312-97.31028-72.464405-122.772184-21.393239-12.814864-45.686529-19.608593-70.25611-19.639293-37.762045-0.053212-72.89931 15.402805-98.945523 43.528376-24.577768 26.539446-38.19695 61.363579-38.631856 98.513688l-247.241011-0.37453 115.857704 233.54815 4.252861 226.372727c0.981351 51.680033 15.129582 102.406344 40.913828 146.701177 25.025976 42.985 60.300364 78.909188 102.010325 103.890138 42.170448 25.252127 90.051969 38.636972 138.468678 38.695301 74.332962 0.089028 143.482879-30.329772 194.717773-85.663008 50.395784-54.428633 77.349669-126.58093 75.895551-203.174376l-4.295839-226.261187 106.968244-233.165434L652.144854 80.974475zM804.675806 147.500635l-75.511811 164.589592 4.334725 228.64856c1.098008 58.998719-19.662829 114.554012-58.4666 156.429749-39.441291 42.561351-92.686982 65.952084-149.930731 65.85794-37.379329-0.039909-74.337055-10.365068-106.882286-29.858028-66.494437-39.817867-108.716051-113.859187-110.196775-193.213513l-4.377704-228.532927L224.923726 151.122115 804.675806 147.500635zM435.125145 80.662367c0.701988-19.599384 8.100492-37.888935 21.104667-51.924603 14.255679-15.394618 33.526581-23.862477 54.252625-23.849174 13.529131 0.031722 26.915 3.78214 38.709627 10.841929 22.735817 13.617136 37.633109 38.236859 39.669488 65.079204L435.125145 80.662367z"  horiz-adv-x="1024" />

    
    <glyph glyph-name="close" unicode="&#58924;" d="M513.344 896a512 512 0 1 1 0-1024 512 512 0 0 1 0 1024z m226.048-674.624l-54.528-56.896-171.52 164.928-171.392-164.928-54.592 56.896L456.576 384 287.36 546.688l54.592 56.768 171.392-164.8 171.52 164.8 54.528-56.768L570.176 384l169.216-162.624z"  horiz-adv-x="1025" />

    
    <glyph glyph-name="user-circle" unicode="&#59182;" d="M870.285714 130.857143q-12.571429 88.571429-50 147.142857T714.857143 345.714286q-38.285714-42.285714-91.142857-66T512 256t-111.714286 23.714286T309.142857 345.714286q-68-9.142857-105.428571-67.714286T153.714286 130.857143q60.571429-85.714286 154.857143-135.714286t203.428571-50 203.428571 50 154.857143 135.714286z m-138.857143 399.428571q0 90.857143-64.285714 155.142857T512 749.714286 356.857143 685.428571 292.571429 530.285714t64.285714-155.142857T512 310.857143t155.142857 64.285714T731.428571 530.285714z m292.571429-146.285714q0-104-40.571429-198.571429t-108.857142-163.428571T711.428571-87.428571t-199.428571-40.571429q-104 0-198.857143 40.571429t-163.428571 109.142857-109.142857 163.428571T0 384t40.571429 198.857143 109.142857 163.428571T313.142857 855.428571 512 896t198.857143-40.571429 163.428571-109.142857 109.142857-163.428571 40.571429-198.857143z"  horiz-adv-x="1024" />

    
    <glyph glyph-name="wind" unicode="&#59061;" d="M143.283 452.227h380.216c37.971 0 73.8 14.918 100.889 42.007s42.008 62.918 42.008 100.889-14.919 73.8-42.008 100.889c-27.088 27.089-62.918 42.007-100.889 42.007-37.97 0-73.8-14.918-100.889-42.007s-42.007-62.919-42.007-100.889c0-17.673 14.327-32 32-32 17.673 0 32 14.327 32 32 0 43.504 35.393 78.896 78.896 78.896s78.896-35.393 78.896-78.896-35.393-78.896-78.896-78.896H143.283c-17.673 0-32-14.327-32-32s14.328-32 32-32zM913.893 580.412c-27.088 27.089-62.918 42.007-100.889 42.007s-73.801-14.918-100.889-42.007c-27.089-27.089-42.008-62.918-42.008-100.889 0-17.673 14.327-32 32-32s32 14.327 32 32c0 43.504 35.393 78.896 78.896 78.896s78.896-35.393 78.896-78.896-35.393-78.896-78.896-78.896H100.099c-17.673 0-32-14.327-32-32s14.327-32 32-32h712.905c37.971 0 73.8 14.919 100.889 42.007 27.089 27.089 42.008 62.919 42.008 100.889s-14.919 73.8-42.008 100.889zM618.034 276.355a31.885 31.885 0 0 1-12.3 2.453H288.887c-17.673 0-32-14.327-32-32s14.327-32 32-32h304.524c32.748 0 60.414-27.666 60.414-60.414 0-32.747-27.666-60.413-60.414-60.413-32.747 0-60.413 27.666-60.413 60.413 0 17.673-14.327 32-32 32-17.673 0-32-14.327-32-32 0-33.066 12.987-64.264 36.568-87.845 23.582-23.582 54.779-36.568 87.845-36.568 33.067 0 64.265 12.986 87.846 36.568 23.581 23.581 36.568 54.778 36.568 87.845s-12.986 64.264-36.568 87.846c-17.621 17.62-39.495 29.323-63.223 34.115z"  horiz-adv-x="1024" />

    
    <glyph glyph-name="user" unicode="&#58888;" d="M691.2 326.4c81.067 55.467 134.4 149.333 134.4 256C825.6 755.2 684.8 896 512 896S200.533 755.2 200.533 584.533c0-106.666 53.334-200.533 134.4-256C151.467 256 23.467 78.933 23.467-128h87.466c0 204.8 155.734 375.467 354.134 398.933 2.133 0 55.466 4.267 100.266 0h4.267c194.133-27.733 343.467-194.133 343.467-396.8h89.6C1000.533 78.933 872.533 256 691.2 326.4zM512 349.867c-130.133 0-234.667 104.533-234.667 234.666C277.333 714.667 381.867 819.2 512 819.2c130.133 0 234.667-104.533 234.667-234.667 0-130.133-104.534-234.666-234.667-234.666z"  horiz-adv-x="1024" />

    
    <glyph glyph-name="jinggao" unicode="&#58990;" d="M671.288889 92.728889H357.262222c-18.204444 0-31.857778-13.653333-31.857778-29.582222 0-18.204444 13.653333-29.582222 31.857778-29.582223h314.026667c18.204444 0 31.857778 13.653333 31.857778 29.582223-2.275556 18.204444-13.653333 29.582222-31.857778 29.582222zM482.417778-80.213333c18.204444-6.826667 38.684444-6.826667 56.888889 0l116.053333 54.613333H370.915556l111.502222-54.613333zM775.964444 761.742222C703.146667 832.284444 614.4 866.417778 512 866.417778c-104.675556 0-191.146667-34.133333-263.964444-104.675556C172.942222 691.2 136.533333 609.28 136.533333 511.431111c0-13.653333 0-27.306667 2.275556-40.96 0-2.275556 2.275556-6.826667 2.275555-9.102222 2.275556-13.653333 2.275556-22.755556 6.826667-34.133333v-4.551112c4.551111-13.653333 6.826667-22.755556 11.377778-34.133333v-2.275555c0-2.275556 0-2.275556 2.275555-2.275556 4.551111-13.653333 11.377778-25.031111 15.928889-36.408889 0-2.275556 0-2.275556 2.275556-2.275555 13.653333-25.031111 29.582222-45.511111 47.786667-68.266667l27.306666-25.031111c4.551111-4.551111 6.826667-4.551111 6.826667-4.551111l6.826667-6.826667 6.826666-4.551111 18.204445-13.653333 2.275555-2.275556c2.275556-2.275556 2.275556-2.275556 4.551111-2.275556 11.377778-9.102222 18.204444-18.204444 25.031111-29.582222 6.826667-11.377778 11.377778-18.204444 15.928889-25.031111 4.551111-4.551111 15.928889-6.826667 29.582223-6.826667h282.168888c13.653333 0 25.031111 2.275556 29.582223 6.826667 4.551111 4.551111 11.377778 13.653333 15.928889 25.031111 4.551111 11.377778 13.653333 20.48 25.031111 29.582222l2.275555 2.275556 4.551111 2.275556 18.204445 13.653333c0 2.275556 4.551111 4.551111 6.826666 4.551111l11.377778 11.377778 2.275556 2.275555c11.377778 9.102222 20.48 18.204444 27.306666 25.031111 9.102222 11.377778 18.204444 22.755556 25.031112 34.133334 6.826667 11.377778 15.928889 22.755556 20.48 36.408889 2.275556 0 2.275556 0 2.275555 2.275555 4.551111 9.102222 11.377778 22.755556 15.928889 36.408889l2.275556 2.275556v2.275555c4.551111 9.102222 6.826667 20.48 11.377777 34.133334 0 2.275556 0 4.551111 2.275556 4.551111l6.826667 34.133333c0 2.275556 0 6.826667 2.275555 9.102222 2.275556 13.653333 2.275556 27.306667 2.275556 40.96 0 93.297778-36.408889 175.217778-111.502223 245.76z m6.826667-207.075555c-4.551111-2.275556-6.826667-2.275556-11.377778-2.275556-11.377778 0-20.48 6.826667-25.031111 15.928889-11.377778 27.306667-29.582222 52.337778-54.613333 75.093333-27.306667 27.306667-59.164444 45.511111-93.297778 56.888889-13.653333 4.551111-22.755556 20.48-18.204444 36.408889 4.551111 13.653333 20.48 22.755556 36.408889 18.204445 40.96-13.653333 79.644444-36.408889 113.777777-68.266667 29.582222-27.306667 52.337778-59.164444 65.991111-91.022222 6.826667-18.204444 0-34.133333-13.653333-40.96z"  horiz-adv-x="1024" />

    
    <glyph glyph-name="daqiyali" unicode="&#58890;" d="M470.29427317 309.12401021999995a35.08766599 35.08766599 0 0 0-35.08766599 35.08766596V665.07741845a35.08766599 35.08766599 0 0 0 70.17533257 0V344.21167618000004a35.08766599 35.08766599 0 0 0-35.08766659-35.08766597zM610.67783243 230.97719887000005a35.08766599 35.08766599 0 0 0-35.08766598 35.087666V596.7880482200001a35.08766599 35.08766599 0 0 0 70.17533255 0v-330.72318335a35.08766599 35.08766599 0 0 0-35.08766658-35.08766599zM751.05042698 309.52971143a35.08766599 35.08766599 0 0 0-35.08766599 35.08766597V665.4282948800001a35.08766599 35.08766599 0 1 0 70.17533197-1e-8v-320.81091747a35.08766599 35.08766599 0 0 0-35.08766598-35.08766598zM841.12704497 220.38510957000005a124.9998108 124.9998108 0 0 0-124.87919708 124.86823175 35.08766599 35.08766599 0 0 0 70.17533254-1e-8 54.70386453 54.70386453 0 1 1 109.39676435 0 35.08766599 35.08766599 0 0 0 70.17533196 0 124.9998108 124.9998108 0 0 0-124.86823176-124.86823174zM380.51370737 220.38510957000005A124.9998108 124.9998108 0 0 0 255.6345109 345.25334132a35.08766599 35.08766599 0 0 0 70.17533195 0 54.70386453 54.70386453 0 1 1 109.39676434 0 35.08766599 35.08766599 0 0 0 70.17533256 0 124.9998108 124.9998108 0 0 0-124.86823238-124.86823175zM961.62028352 89.53004443999998H258.04678756a35.08766599 35.08766599 0 0 0 0 70.17533255h703.57349595a35.08766599 35.08766599 0 0 0 0-70.17533255z"  horiz-adv-x="1296" />

    
    <glyph glyph-name="add1" unicode="&#58889;" d="M967.111111 440.888889H568.888889V839.111111c0 31.288889-25.6 56.888889-56.888889 56.888889s-56.888889-25.6-56.888889-56.888889v-398.222222H56.888889c-31.288889 0-56.888889-25.6-56.888889-56.888889s25.6-56.888889 56.888889-56.888889h398.222222v-398.222222c0-31.288889 25.6-56.888889 56.888889-56.888889s56.888889 25.6 56.888889 56.888889V327.111111h398.222222c31.288889 0 56.888889 25.6 56.888889 56.888889s-25.6 56.888889-56.888889 56.888889z"  horiz-adv-x="1024" />

    
    <glyph glyph-name="renjijiaohu" unicode="&#60262;" d="M948.448 360.512c-25.856 119.584-111.008 238.24-182.272 217.632-25.504-7.36-45.088-20.832-57.728-39.424-22.976 10.656-46.496 11.68-69.504 1.536a86.112 86.112 0 0 1-40.256-35.52c-26.496 13.408-56.96 13.12-88.896-1.856a107.2 107.2 0 0 1-19.232-11.456c-77.824 109.984-141.408 159.616-198.72 146.624-81.152-18.368-81.152-89.152-19.584-181.856l118.208-182.784c-64.864 12.192-111.776 1.728-139.584-35.424-45.472-60.8 2.656-116.96 114.4-167.232l215.968-96.064a32 32 0 0 1 26.016 58.464l-215.84 96c-43.552 19.584-72.32 37.952-85.568 53.44-7.68 8.96-7.904 11.456-3.712 17.056 15.808 21.12 64.928 21.12 150.56-10.816 28.864-10.784 54.784 21.472 38.048 47.36l-164.96 255.072C284.8 552.992 284.8 570.816 305.984 575.616c28.064 6.336 87.104-49.408 165.536-170.56 5.888-13.888 15.072-28.352 27.392-42.976 25.472-30.272 72.416 3.552 51.776 37.312a2035.2 2035.2 0 0 1-23.04 36.832c0.544 3.744 3.872 6.144 9.312 8.704 22.464 10.528 36.48 6.528 52.192-15.68 17.472-24.64 56.224-13.6 58.048 16.576 1.28 21.184 7.136 31.296 17.536 35.872 8.96 3.936 20.096 0.544 37.472-16a32 32 0 0 1 53.952 20.32c1.472 16.544 9.024 25.248 27.808 30.688 19.712 5.696 83.136-82.688 101.952-169.696 13.536-62.592 13.536-136.992-0.32-223.136a32 32 0 1 1 63.2-10.144c15.008 93.504 15.008 175.776-0.352 246.784zM300.8 0H164.256C144.352 0 128 16.608 128 37.344V730.656C128 751.392 144.352 768 164.256 768h375.456C559.648 768 576 751.392 576 730.656a32 32 0 0 1 64 0C640 786.528 595.232 832 539.744 832H164.256C108.768 832 64 786.528 64 730.656v-693.344C64-18.528 108.768-64 164.256-64H300.8a32 32 0 0 1 0 64z"  horiz-adv-x="1024" />

    
    <glyph glyph-name="co" unicode="&#59069;" d="M611.2 620.8h-132.8L384 526.4v-132.8l94.4-94.4h132.8l94.4 94.4v132.8l-94.4 94.4z m30.4-200l-56-56h-80l-56 56v80l56 56h80l56-56v-80zM259.2 406.4l-41.6-41.6h-80l-56 56v78.4l56 57.6h80l56-57.6v-12.8h64v40l-94.4 94.4H110.4l-92.8-94.4v-132.8l92.8-92.8h132.8l94.4 92.8v12.8zM988.8 148.8H760V332.8h164.8v88H760v64h228.8v-216H824v-56h164.8z"  horiz-adv-x="1024" />

    
    <glyph glyph-name="tubiao-zhuzhuangtu" unicode="&#60310;" d="M896 0H96a32 32 0 0 0-32 32V672a32 32 0 0 0 64 0v-608h768a32 32 0 1 0 0-64zM512 143.84a32 32 0 0 0-32 32V545.376a32 32 0 0 0 64 0v-369.536a32 32 0 0 0-32-32zM320 143.424a32 32 0 0 0-32 32V384a32 32 0 0 0 64 0v-208.576a32 32 0 0 0-32-32zM896 143.328a32 32 0 0 0-32 32V732.512a32 32 0 1 0 64 0v-557.184a32 32 0 0 0-32-32zM704 143.264a32 32 0 0 0-32 32V672a32 32 0 1 0 64 0v-496.736a32 32 0 0 0-32-32z"  horiz-adv-x="1024" />

    
    <glyph glyph-name="miwen" unicode="&#60387;" d="M562.39328 602.304a32 32 0 0 0-14.336-62.4 160 160 0 0 1-185.056-214.336 32 32 0 1 0-59.584-23.328 224 224 0 0 0 258.976 300.064z m-100.256-436.704a32 32 0 0 0 14.208 62.4 160 160 0 0 1 188.224 204.48 32 32 0 1 0 60.992 19.328 224 224 0 0 0-263.456-286.208zM213.46528 219.904a32 32 0 1 0-42.336-48C132.05728 206.4 77.49728 270.432 6.45728 364.736a32 32 0 0 0-0.992 37.12C154.16928 623.296 323.22528 736 512.02528 736c52.704 0 104.096-8.832 154.016-26.496a32 32 0 0 0-21.344-60.352A394.752 394.752 0 0 1 512.02528 672c-159.584 0-306.24-94.464-440.576-287.04 61.824-81.056 109.44-136.288 142.048-165.056z m599.808 325.76a32 32 0 0 0 42.592 47.808c38.368-34.24 91.968-97.376 161.728-190.24a32 32 0 0 0 0.992-37.088C869.88128 144.704 700.82528 32 512.02528 32c-37.824 0-74.944 4.544-111.36 13.664a32 32 0 0 0 15.488 62.08c31.36-7.84 63.264-11.744 95.872-11.744 159.584 0 306.24 94.464 440.576 287.04-60.64 79.712-107.328 134.112-139.328 162.656zM823.92928 773.088a32 32 0 0 0 48.192-42.176l-672-768a32 32 0 0 0-48.192 42.176l672 768z"  horiz-adv-x="1024" />

    
    <glyph glyph-name="xianhao" unicode="&#60388;" d="M434.752 416L195.2 655.52A32 32 0 0 0 240.48 700.8L480 461.248V800a32 32 0 0 0 64 0v-338.752L783.52 700.8A32 32 0 1 0 828.8 655.52L589.248 416H928a32 32 0 0 0 0-64H589.248l239.52-239.52a32 32 0 1 0-45.248-45.248L544 306.752V-32a32 32 0 0 0-64 0V306.752L240.48 67.2A32 32 0 0 0 195.2 112.48L434.752 352H96a32 32 0 0 0 0 64h338.752z"  horiz-adv-x="1024" />

    
    <glyph glyph-name="huixingzhen" unicode="&#60390;" d="M770.784 782.72a293.12 293.12 0 0 1-410.496-57.696L235.712 559.68a31.968 31.968 0 1 1 51.104-38.496l124.576 165.344a229.12 229.12 0 1 0 365.952-275.776l-255.36-338.88a163.84 163.84 0 0 0-261.696 197.184l255.36 338.88a98.528 98.528 0 1 0 157.408-118.624l-216.064-286.752a33.28 33.28 0 1 0-53.184 40.064c86.176 115.616 141.024 189.024 164.544 220.256a32 32 0 1 1-51.136 38.496c-23.616-31.36-78.496-104.8-164.64-220.384a97.28 97.28 0 1 1 155.456-116.96l218.912 290.496c0.992 1.344 1.312 2.912 2.08 4.32 47.36 71.104 32.224 167.456-36.896 219.552a162.56 162.56 0 0 1-227.648-32l-255.36-338.88a227.84 227.84 0 0 1 363.904-274.24l255.36 338.88a293.056 293.056 0 0 1-57.6 410.56z"  horiz-adv-x="1024" />

    
    <glyph glyph-name="xiayibu" unicode="&#60399;" d="M512-96C246.912-96 32 118.912 32 384 32 649.088 246.912 864 512 864c265.088 0 480-214.912 480-480 0-265.088-214.912-480-480-480z m0 64c229.76 0 416 186.24 416 416S741.76 800 512 800 96 613.76 96 384s186.24-416 416-416zM688 416a32 32 0 0 0 0-64h-416a32 32 0 0 0 0 64h416zM707.072 384l-151.36 170.784a32 32 0 1 0 47.872 42.432l170.208-192a32 32 0 0 0 0-42.432l-170.24-192a32 32 0 1 0-47.872 42.432L707.072 384z"  horiz-adv-x="1024" />

    
    <glyph glyph-name="shangyibu" unicode="&#60400;" d="M512-96C246.912-96 32 118.912 32 384 32 649.088 246.912 864 512 864c265.088 0 480-214.912 480-480 0-265.088-214.912-480-480-480z m0 64c229.76 0 416 186.24 416 416S741.76 800 512 800 96 613.76 96 384s186.24-416 416-416zM336 416a32 32 0 0 1 0-64h416a32 32 0 0 1 0 64h-416zM316.928 384l151.36 170.784a32 32 0 1 1-47.872 42.432l-170.208-192a32 32 0 0 1 0-42.432l170.24-192a32 32 0 1 1 47.872 42.432L316.928 384z"  horiz-adv-x="1024" />

    
    <glyph glyph-name="-lumingpai" unicode="&#60411;" d="M608 480h205.312L960 608l-146.688 128H608V864h-192v-128H96v-256h320v-64H210.688L64 288l146.688-128H416v-256h192v256h320v256H608v64zM480 800h64v-64h-64V800zM160 544V672h629.344l73.344-64-73.344-64H160z m320-64h64v-64h-64v64z m64-512h-64v192h64v-192z m320 384v-128H234.656l-73.344 64 73.344 64H864z"  horiz-adv-x="1024" />

    
    <glyph glyph-name="-zhongdaweixian" unicode="&#60413;" d="M987.008 49.184l-448 704a32.032 32.032 0 0 1-54.016 0l-448-704A32 32 0 0 1 64 0h896a32 32 0 0 1 27.008 49.184zM122.304 64L512 676.384 901.696 64H122.304zM495.808 567.104l-268.8-422.4a19.2 19.2 0 0 1 16.192-29.504h537.6a19.2 19.2 0 0 1 16.192 29.504l-268.8 422.4a19.2 19.2 0 0 1-32.384 0zM544 160h-64v64h64v-64z m0 288v-192h-64v192h64z"  horiz-adv-x="1024" />

    
    <glyph glyph-name="nongye" unicode="&#58884;" d="M225.792-128h-2.56c-17.408 1.536-30.72 16.384-29.696 34.304 0.512 4.096 8.192 107.008 65.024 249.344 52.224 130.56 157.696 321.024 362.496 485.376 13.824 11.264 33.792 8.704 45.056-5.12 11.264-13.824 8.704-33.792-5.12-45.056-371.2-297.472-403.456-685.568-403.968-689.152-0.512-16.896-14.848-29.696-31.232-29.696zM688.128 577.024c-30.72 0-56.832 9.728-72.704 32.256-11.776 16.896-25.6 53.76 12.288 114.176 23.04 36.864 60.928 74.24 105.984 105.472C778.752 860.16 827.392 882.688 869.376 891.392c69.632 14.848 99.84-11.264 111.104-28.16 42.496-60.928-27.648-156.672-118.272-219.648-56.32-39.424-122.368-66.56-174.08-66.56z m219.648 254.976c-6.656 0-14.848-1.024-25.088-3.072-33.792-7.168-74.752-26.112-112.64-52.736-37.888-26.112-70.144-57.856-88.064-87.04-15.872-25.088-16.384-39.936-13.824-43.52 7.168-10.24 72.704-8.704 158.208 50.688s109.568 120.32 102.4 130.56c-2.048 2.56-8.192 5.12-20.992 5.12zM697.856 285.184c-19.968 0-40.448 1.536-60.928 4.096-54.784 7.168-105.472 23.552-142.336 45.568-61.44 36.352-66.048 75.776-63.488 95.744 2.56 20.48 17.408 56.832 86.016 75.776 41.984 11.264 94.72 13.824 149.504 6.656 109.568-14.336 215.552-67.584 205.824-141.312-7.68-59.904-86.016-86.528-174.592-86.528z m-92.16 167.936c-26.624 0-51.2-3.072-71.168-8.192-28.672-7.68-38.912-18.944-39.424-22.528-0.512-4.096 6.656-16.896 32.256-32.256 29.696-17.408 72.704-31.232 118.272-36.864 103.424-13.824 161.792 14.848 163.84 27.648 1.536 12.288-47.616 55.808-151.04 69.12-17.92 2.048-35.84 3.072-52.736 3.072z m235.52-77.312zM580.608 15.872c-31.744 0-65.024 4.096-97.792 11.776-53.76 12.288-102.4 33.28-137.728 58.368-57.856 41.984-58.368 81.408-53.76 101.376 4.608 19.968 22.528 55.296 92.672 67.584 42.496 7.68 95.744 5.12 149.504-7.68 108.032-24.576 208.384-87.552 191.488-159.744-11.264-50.688-72.192-71.68-144.384-71.68z m-145.408 179.2c-14.336 0-28.16-1.024-39.936-3.072-29.184-5.12-40.96-14.848-41.472-18.944-1.024-4.096 5.12-17.408 29.184-35.328 27.648-19.968 69.632-37.888 114.176-48.128 101.376-23.552 162.816 0 165.376 11.776 2.56 12.288-41.984 59.904-143.36 82.944-28.672 7.168-57.856 10.752-83.968 10.752z m258.56-100.352zM445.952 420.352c-21.504 0-56.832 10.24-87.04 68.096-19.968 38.4-33.28 89.6-37.888 144.896-4.608 54.784 0.512 108.032 14.336 148.992C357.376 849.92 394.752 862.72 415.232 864.256c20.48 1.536 59.392-5.12 92.16-68.096 19.968-38.4 33.28-89.6 37.888-144.896 8.704-110.08-20.992-224.768-94.72-230.912h-4.608z m-25.088 379.904s-0.512 0 0 0c-4.096-0.512-15.36-10.24-25.088-38.4-10.752-32.768-14.848-77.824-11.264-123.392 3.584-46.08 14.848-89.6 30.72-120.32 13.824-26.624 26.624-34.304 30.72-33.792 12.288 1.024 44.544 58.368 35.84 161.792-3.584 46.08-14.848 89.6-30.72 120.32-13.824 26.112-26.112 33.792-30.208 33.792zM298.496 208.384c-55.808 0-127.488 48.64-181.76 111.104-36.352 41.472-63.488 87.04-76.8 128-22.016 67.584 0.512 100.352 15.872 113.664 55.808 48.64 158.72-10.24 231.424-93.696C359.936 384 404.48 273.92 348.672 225.28c-14.848-11.264-31.744-16.896-50.176-16.896z m28.672 41.984zM104.96 515.584c-3.584 0-6.144-0.512-7.68-2.048-3.072-2.56-6.144-17.408 3.072-45.568 10.752-32.768 34.304-71.168 64.512-105.984 68.608-78.336 131.584-95.744 140.8-87.552 9.216 8.192 1.024 73.216-67.584 151.552-57.856 67.072-112.64 89.6-133.12 89.6z"  horiz-adv-x="1024" />

    
    <glyph glyph-name="fullscreen" unicode="&#59372;" d="M290 659.6l43.9 43.9c4.7 4.7 1.9 12.8-4.7 13.6L169 736c-5.1 0.6-9.5-3.7-8.9-8.9L179 566.9c0.8-6.6 8.9-9.4 13.6-4.7l43.7 43.7L370 472.3c3.1-3.1 8.2-3.1 11.3 0l42.4 42.3c3.1 3.1 3.1 8.2 0 11.3L290 659.6zM642.7 472.3c3.1-3.1 8.2-3.1 11.3 0l133.7 133.6 43.7-43.7c4.7-4.7 12.8-1.9 13.6 4.7L863.9 727c0.6 5.1-3.7 9.5-8.9 8.9L694.8 717c-6.6-0.8-9.4-8.9-4.7-13.6l43.9-43.9L600.3 526c-3.1-3.1-3.1-8.2 0-11.3l42.4-42.4zM845 201.1c-0.8 6.6-8.9 9.4-13.6 4.7l-43.7-43.7L654 295.7c-3.1 3.1-8.2 3.1-11.3 0l-42.4-42.3c-3.1-3.1-3.1-8.2 0-11.3L734 108.4l-43.9-43.9c-4.7-4.7-1.9-12.8 4.7-13.6L855 32c5.1-0.6 9.5 3.7 8.9 8.9L845 201.1zM381.3 295.7c-3.1 3.1-8.2 3.1-11.3 0L236.3 162.1l-43.7 43.7c-4.7 4.7-12.8 1.9-13.6-4.7L160.1 41c-0.6-5.1 3.7-9.5 8.9-8.9L329.2 51c6.6 0.8 9.4 8.9 4.7 13.6L290 108.4 423.7 242c3.1 3.1 3.1 8.2 0 11.3l-42.4 42.4z"  horiz-adv-x="1024" />

    
    <glyph glyph-name="fullscreen-exit" unicode="&#59373;" d="M391 655.1c-0.8 6.6-8.9 9.4-13.6 4.7l-43.7-43.7L200 749.7c-3.1 3.1-8.2 3.1-11.3 0l-42.4-42.3c-3.1-3.1-3.1-8.2 0-11.3L280 562.4l-43.9-43.9c-4.7-4.7-1.9-12.8 4.7-13.6L401 486c5.1-0.6 9.5 3.7 8.9 8.9L391 655.1zM401.1 281.9L240.8 263c-6.6-0.8-9.4-8.9-4.7-13.6l43.9-43.9L146.3 72c-3.1-3.1-3.1-8.2 0-11.3l42.4-42.3c3.1-3.1 8.2-3.1 11.3 0L333.7 152l43.7-43.7c4.7-4.7 12.8-1.9 13.6 4.7l18.9 160.1c0.6 5.1-3.7 9.4-8.8 8.8zM622.9 486.1L783.2 505c6.6 0.8 9.4 8.9 4.7 13.6L744 562.4 877.7 696c3.1 3.1 3.1 8.2 0 11.3l-42.4 42.3c-3.1 3.1-8.2 3.1-11.3 0L690.3 616.1l-43.7 43.7c-4.7 4.7-12.8 1.9-13.6-4.7L614.1 495c-0.6-5.2 3.7-9.5 8.8-8.9zM744 205.6l43.9 43.9c4.7 4.7 1.9 12.8-4.7 13.6L623 282c-5.1 0.6-9.5-3.7-8.9-8.9L633 112.9c0.8-6.6 8.9-9.4 13.6-4.7l43.7 43.7L824 18.3c3.1-3.1 8.2-3.1 11.3 0l42.4 42.3c3.1 3.1 3.1 8.2 0 11.3L744 205.6z"  horiz-adv-x="1024" />

    
    <glyph glyph-name="exclaimination" unicode="&#59383;" d="M512 92m-64 0a64 64 0 1 1 128 0 64 64 0 1 1-128 0ZM480 260h64c4.4 0 8 3.6 8 8V732c0 4.4-3.6 8-8 8h-64c-4.4 0-8-3.6-8-8v-464c0-4.4 3.6-8 8-8z"  horiz-adv-x="1024" />

    
    <glyph glyph-name="right" unicode="&#58895;" d="M761.056 363.872c0.512 0.992 1.344 1.824 1.792 2.848 8.8 18.304 5.92 40.704-9.664 55.424L399.936 756.256c-19.264 18.208-49.632 17.344-67.872-1.888-18.208-19.264-17.376-49.632 1.888-67.872l316.96-299.84L335.2 82.368c-19.072-18.4-19.648-48.768-1.248-67.872 9.408-9.792 21.984-14.688 34.56-14.688 12 0 24 4.48 33.312 13.44l350.048 337.376c0.672 0.672 0.928 1.6 1.6 2.304 0.512 0.48 1.056 0.832 1.568 1.344 2.72 2.848 4.16 6.336 6.016 9.6z"  horiz-adv-x="1024" />

    
    <glyph glyph-name="delete" unicode="&#58881;" d="M382.320274 490.642286v-384a20.626286 20.626286 0 0 0-21.577143-21.284572H317.44256a20.626286 20.626286 0 0 0-21.577143 21.357715v384a20.626286 20.626286 0 0 0 21.577143 21.284571h43.154286a20.626286 20.626286 0 0 0 21.577143-21.357714h0.073142z m172.909715 0v-384a20.626286 20.626286 0 0 0-21.650286-21.284572h-43.154286a20.626286 20.626286 0 0 0-21.577143 21.357715v384a20.626286 20.626286 0 0 0 21.577143 21.284571h43.154286a20.626286 20.626286 0 0 0 21.577143-21.357714z m172.909714 0v-384a20.626286 20.626286 0 0 0-21.650286-21.284572h-43.154286a20.626286 20.626286 0 0 0-21.577142 21.357715l-0.073143 384a20.626286 20.626286 0 0 0 21.577143 21.284571h43.227428a20.626286 20.626286 0 0 0 21.577143-21.357714z m86.381714-482.669715V640H209.483703v-631.954286a74.825143 74.825143 0 0 1 14.482286-45.056c3.364571-3.803429 5.778286-5.632 7.094857-5.632h561.883428c1.316571 0 3.657143 1.828571 7.094857 5.632a74.825143 74.825143 0 0 1 14.555429 44.982857zM360.743131 725.357714h302.518858l-32.402286 77.970286a19.017143 19.017143 0 0 1-11.483429 7.314286H405.287131a19.017143 19.017143 0 0 1-11.483428-7.314286l-33.060572-77.970286zM987.431131 704v-42.642286a20.626286 20.626286 0 0 0-21.577142-21.357714h-64.877715v-631.954286c0-36.937143-10.532571-68.754286-31.744-95.744-21.211429-26.843429-46.592-40.301714-76.288-40.301714H231.060846c-29.696 0-55.149714 13.019429-76.288 38.985143-21.211429 26.038857-31.744 57.490286-31.744 94.354286V640H58.151131A20.626286 20.626286 0 0 0 36.573989 661.357714v42.642286a20.626286 20.626286 0 0 0 21.577142 21.357714h208.676572L314.151131 836.681143c6.729143 16.457143 18.870857 30.427429 36.425143 41.984 17.554286 11.556571 35.401143 17.334857 53.394286 17.334857h216.064c17.993143 0 35.84-5.778286 53.394286-17.334857 17.554286-11.556571 29.696-25.6 36.425143-41.984l47.323428-111.323429h208.676572a20.626286 20.626286 0 0 0 21.577142-21.357714z"  horiz-adv-x="1024" />

    
    <glyph glyph-name="video" unicode="&#59467;" d="M912.341333 636.757333a42.496 42.496 0 0 1-46.506666-9.258666L725.333333 486.997333V682.666667a42.666667 42.666667 0 0 1-42.666666 42.666666H128a42.666667 42.666667 0 0 1-42.666667-42.666666v-597.333334a42.666667 42.666667 0 0 1 42.666667-42.666666h554.666667a42.666667 42.666667 0 0 1 42.666666 42.666666v195.669334l140.501334-140.501334A42.624 42.624 0 1 1 938.666667 170.666667V597.333333a42.624 42.624 0 0 1-26.325334 39.424zM640 128H170.666667V640h469.333333v-512z m213.333333 145.664L742.997333 384 853.333333 494.336v-220.672z"  horiz-adv-x="1024" />

    
    <glyph glyph-name="icon-test" unicode="&#58962;" d="M512 384m-403.2 0a403.2 403.2 0 1 1 806.4 0 403.2 403.2 0 1 1-806.4 0ZM512 288c-19.2 0-38.4 19.2-38.4 38.4V608c0 19.2 19.2 38.4 38.4 38.4s38.4-19.2 38.4-38.4V320c0-12.8-19.2-32-38.4-32zM512 160m-44.8 0a44.8 44.8 0 1 1 89.6 0 44.8 44.8 0 1 1-89.6 0Z"  horiz-adv-x="1024" />

    
    <glyph glyph-name="add" unicode="&#58925;" d="M512.006827-124.59008C231.120213-124.59008 3.413333 103.14752 3.413333 383.996587S231.120213 892.59008 512.006827 892.59008 1020.586667 664.8832 1020.586667 383.996587c0-280.89344-227.730773-508.586667-508.57984-508.586667z m278.278826 537.378133a19.13856 19.13856 0 0 1-19.135146 19.135147h-211.162454V643.085653a19.135147 19.135147 0 0 1-19.135146 19.135147H483.2256a19.135147 19.135147 0 0 1-19.13856-19.135147v-211.11808H252.91776a19.135147 19.135147 0 0 1-19.135147-19.13856v-57.57952a19.135147 19.135147 0 0 1 19.135147-19.135146h211.121493v-211.2a19.135147 19.135147 0 0 1 19.135147-19.13856h57.57952a19.13856 19.13856 0 0 1 19.13856 19.13856v211.101013h211.2a19.135147 19.135147 0 0 1 19.131733 19.13856l0.06144 57.634133z"  horiz-adv-x="1024" />

    
    <glyph glyph-name="guanli" unicode="&#59043;" d="M384 896H85.333333C38.4 896 0 857.6 0 810.666667v-298.666667c0-46.933333 38.4-85.333333 85.333333-85.333333h298.666667c46.933333 0 85.333333 38.4 85.333333 85.333333V810.666667c0 46.933333-38.4 85.333333-85.333333 85.333333z m0-384H85.333333V810.666667h298.666667v-298.666667z m0-42.666667v42.666667-42.666667zM938.666667 896H640c-46.933333 0-85.333333-38.4-85.333333-85.333333v-298.666667c0-46.933333 38.4-85.333333 85.333333-85.333333h298.666667c46.933333 0 85.333333 38.4 85.333333 85.333333V810.666667c0 46.933333-38.4 85.333333-85.333333 85.333333z m0-384H640V810.666667h298.666667v-298.666667zM384 341.333333H85.333333c-46.933333 0-85.333333-38.4-85.333333-85.333333v-298.666667c0-46.933333 38.4-85.333333 85.333333-85.333333h298.666667c46.933333 0 85.333333 38.4 85.333333 85.333333V256c0 46.933333-38.4 85.333333-85.333333 85.333333z m0-384H85.333333V256h298.666667v-298.666667z m0-42.666666v42.666666-42.666666zM938.666667 341.333333H640c-46.933333 0-85.333333-38.4-85.333333-85.333333v-298.666667c0-46.933333 38.4-85.333333 85.333333-85.333333h298.666667c46.933333 0 85.333333 38.4 85.333333 85.333333V256c0 46.933333-38.4 85.333333-85.333333 85.333333z m0-384H640V256h298.666667v-298.666667z"  horiz-adv-x="1024" />

    
    <glyph glyph-name="wendu" unicode="&#59382;" d="M512 813c46.9 0 85-38.1 85-85v-368.8l24-14.6c30.3-18.4 55.6-44.4 73.2-75.1C712.4 237.8 722 201.7 722 165c0-56-21.8-108.7-61.4-148.4C621-23 568.3-44.9 512.3-45h-0.3c-28.2 0-55.6 5.6-81.5 16.5-25 10.6-47.5 25.8-66.8 45.1-19.4 19.4-34.5 41.8-45.2 66.8-11 25.8-16.5 53.3-16.5 81.5 0 36.7 9.6 72.8 27.7 104.4 17.6 30.7 43 56.7 73.2 75.1l24 14.6V728c0.1 46.9 38.2 85 85.1 85m0 50c-74.6 0-135-60.4-135-135v-340.7C302.1 341.6 252 259.2 252 165c0-143.2 116.9-260 260-260h0.4C655.8-94.8 772 21.5 772 165c0 94.2-50.1 176.6-125 222.2V728c0 74.6-60.4 135-135 135z m25-612.9V536.6c0 13.8-11.2 25-25 25s-25-11.2-25-25v-286.5c-37.5-10.8-65-45.4-65-86.5 0-49.7 40.3-90 90-90s90 40.3 90 90c0 41-27.5 75.7-65 86.5z"  horiz-adv-x="1024" />

    
    <glyph glyph-name="guize" unicode="&#60498;" d="M932.992 168.736c-16.64 11.744-45.024 84.96-65.92 138.72l-11.104 28.544H928a32 32 0 1 1 0 64h-97.952C775.392 529.216 700.544 662.72 576 686.2719999999999V800a32 32 0 1 1-64 0v-111.36c-139.008-15.68-206.304-161.632-259.104-288.64H96a32 32 0 0 1 0-64h130.208C195.936 265.216 164.224 203.13599999999997 128 203.13599999999997a32 32 0 1 1 0-64c81.408 0 124.576 93.184 167.648 196.864H512V-64a32 32 0 1 1 64 0V336h211.104c7.072-17.664 13.824-35.04 20.288-51.68 41.984-108.064 69.696-179.424 122.656-179.424a32 32 0 0 1 2.944 63.84zM322.336 400c44.576 104.704 98.048 208.032 189.664 223.968V400h-189.664z m253.664 0V620.1600000000001c81.664-23.872 139.52-119.648 184.256-220.16H576z"  horiz-adv-x="1024" />

    
    <glyph glyph-name="jianceqi" unicode="&#60500;" d="M864 832H160c-35.296 0-64-28.704-64-64v-768c0-35.296 28.704-64 64-64h704c35.296 0 64 28.704 64 64V768c0 35.296-28.704 64-64 64zM160 0v57.344h96a32 32 0 1 1 0 64H160v32h96a32 32 0 1 1 0 64H160V768h704l0.032-550.656H768a32 32 0 1 1 0-64h96.064v-32H768a32 32 0 1 1 0-64h96.064V0H160zM832 736H192v-480h640V736z m-64-416H256V672h512v-352z"  horiz-adv-x="1024" />

    
    <glyph glyph-name="bug" unicode="&#60515;" d="M928 357.34400000000005h-128v177.344l86.08 82.176a32 32 0 1 1-44.192 46.304L750.624 576H273.376L182.08 663.136a31.968 31.968 0 1 1-44.16-46.272L224 534.656v-177.344H96a32 32 0 0 1 0-64h128V256c0-52.96 14.304-102.592 39.232-145.216L137.92-8.864000000000033a32 32 0 1 1 44.192-46.304l119.712 114.272a287.104 287.104 0 0 1 178.208-89.344V352a32 32 0 0 0 64 0v-382.24a287.424 287.424 0 0 1 178.208 89.344l119.712-114.272a32.032 32.032 0 0 1 44.192 46.304l-125.344 119.648A287.04 287.04 0 0 1 800 256v37.344h128a32 32 0 0 1 0 64zM672 656a160 160 0 0 1-320 0v-21.344h320V656z"  horiz-adv-x="1024" />

    
    <glyph glyph-name="shanchu" unicode="&#60539;" d="M928.16 752H736V832a32 32 0 0 1-32 32H320a32 32 0 0 1-32-32v-80H95.84a32 32 0 0 1 0-64H129.6l77.92-698.656A96 96 0 0 1 302.912-96h418.144a96.032 96.032 0 0 1 95.424 85.344L894.4 688h33.728a32 32 0 0 1 0.032 64zM352 800h320v-48H352V800z m400.896-803.552a32 32 0 0 0-31.808-28.448H302.912a32 32 0 0 0-31.808 28.448L193.984 688h636.032l-77.12-691.552zM608 75.072a32 32 0 0 1 32 32V576.896a32 32 0 0 1-64 0v-469.824a32 32 0 0 1 32-32zM432 75.072a32 32 0 0 1 32 32V576.896a32 32 0 0 1-64 0v-469.824a32 32 0 0 1 32-32z"  horiz-adv-x="1024" />

    
    <glyph glyph-name="camera" unicode="&#59210;" d="M1021.967966 622.933333v-603.175431a71.605008 71.605008 0 0 0-71.605008-71.750153H72.717789a71.605008 71.605008 0 0 0-71.605008 71.750153V622.933333a71.65339 71.65339 0 0 0 71.605008 71.750154h190.140326l106.923695 113.068178h0.483817a43.543586 43.543586 0 0 0 29.996693 11.127806h222.072289a45.672384 45.672384 0 0 0 30.48051-10.98266v-0.435436l106.923695-112.971415h190.624144a71.65339 71.65339 0 0 0 71.605008-71.556627z m-605.739665 113.697142h190.140326l39.673046-41.946988h-269.486417z m291.742027-406.164895a197.155682 197.155682 0 1 1-197.39759-197.204063 197.494354 197.494354 0 0 1 197.39759 197.204063z m-115.148594 82.248996a116.11623 116.11623 0 0 0-82.248996-198.365226 116.358138 116.358138 0 0 0 0 232.667895 114.858304 114.858304 0 0 0 82.248996-34.447814z"  horiz-adv-x="1024" />

    
    <glyph glyph-name="Assets" unicode="&#58977;" d="M481.1 360.1L116.8 538.2c-15 10.5-16.4 56.1 0 62.8l364.3 178.1c20.6 10.2 39.9 12.5 62.8 0L906.4 601c14.9-12 19.9-47.7 0-62.8L543.9 360.1c-20.6-8.6-44.9-9.8-62.8 0zM912.4 406.1c-12.7 26.2-44.2 37.1-70.4 24.4L511.4 269.8 180.7 430.5c-26.2 12.7-57.7 1.8-70.4-24.4-12.7-26.2-1.8-57.7 24.4-70.4l349.2-169.6c8.9-4.3 18.4-5.9 27.6-5.1 9.2-0.8 18.7 0.8 27.6 5.1l349.2 169.6c25.9 12.7 36.9 44.3 24.1 70.4zM912.4 225.1c-12.7 26.2-44.2 37.1-70.4 24.4L511.4 88.8 180.7 249.5c-26.2 12.7-57.7 1.8-70.4-24.4-12.7-26.2-1.8-57.7 24.4-70.4l349.2-169.6c8.9-4.3 18.4-5.9 27.6-5.1 9.2-0.8 18.7 0.8 27.6 5.1l349.2 169.6c25.9 12.7 36.9 44.3 24.1 70.4z"  horiz-adv-x="1024" />

    
    <glyph glyph-name="bianjisekuai" unicode="&#60540;" d="M775.84 503.232l-155.2 172.352L160.768 252.736l-38.368-187.936 190.56 12.832zM929.952 666.048l-131.2 150.944-0.288 0.32a16 16 0 0 1-22.592 0.96l-131.168-120.576 155.168-172.352 128.832 118.464a15.936 15.936 0 0 1 1.248 22.24zM96 0h832v-64H96z"  horiz-adv-x="1024" />

    
    <glyph glyph-name="charutupian" unicode="&#60543;" d="M896 269.408a16 16 0 0 1-7.68 13.664l-172.448 105.088a16 16 0 0 1-20.704-3.52l-76-92.608-1.024-1.152a16 16 0 0 0-22.624-0.032l-252.832 252.064a16.032 16.032 0 0 1-22.08 0.512l-187.36-170.656a15.936 15.936 0 0 1-5.248-11.84V96h768v173.408zM800 576m-64 0a64 64 0 1 1 128 0 64 64 0 1 1-128 0ZM32 768v-768h960V768H32z m896-704H96V704h832v-640z"  horiz-adv-x="1024" />

    
    <glyph glyph-name="tianxie" unicode="&#60552;" d="M928 530.336a32 32 0 0 1-32-32V32a32 32 0 0 0-32-32H160a32 32 0 0 0-32 32V736a32 32 0 0 0 32 32h429.6a32 32 0 0 1 0 64H160a96 96 0 0 1-96-96v-704a96 96 0 0 1 96-96h704a96 96 0 0 1 96 96V498.336a32 32 0 0 1-32 32zM231.616 199.584a38.4 38.4 0 0 1 44.256-53.792l148 38.368L950.496 710.752 814.72 846.528 290.432 322.24l-58.816-122.656z m111.808 85.12L814.72 756l45.248-45.248-468.992-468.992-77.824-20.16 30.272 63.104z"  horiz-adv-x="1024" />

    
    <glyph glyph-name="warn" unicode="&#59089;" d="M1019.20384-5.632L546.62784 813.056c-15.36 26.112-52.736 26.112-68.096 0L5.44384-5.632c-15.36-26.112 3.584-58.88 34.304-58.88h945.152c30.208 0 49.152 32.768 34.304 58.88zM462.14784 542.208c0.512 26.112 21.504 47.104 47.616 47.104h5.632c26.112 0 47.104-20.992 47.104-47.104v-254.464c0-26.112-21.504-47.616-48.128-47.104h-4.608c-26.112 0-47.616 20.992-47.616 47.104V542.208zM569.66784 120.32c-5.12-26.112-20.48-41.984-46.592-47.616-6.144-1.536-12.288-1.536-18.432 0-27.136 5.632-43.52 20.992-49.152 46.592-1.536 6.656-1.536 13.312 0 19.456 5.632 25.6 22.016 40.96 49.152 46.08 6.144 1.024 12.288 1.024 18.432 0 26.112-5.632 41.472-20.992 46.592-47.104 1.024-5.632 1.024-11.776 0-17.408z"  horiz-adv-x="1024" />

    
    <glyph glyph-name="daqia" unicode="&#58885;" d="M914.672 517.328c-24 240-261.328 317.328-261.328 317.328C544 869.328 440 848 440 848 186.672 816 122.672 533.328 122.672 533.328 88 349.328 221.328 192 221.328 192 256 160 512-88 512-88h32c0 13.328 253.328 261.328 253.328 261.328 165.344 154.672 117.344 344 117.344 344zM522.912 173.568c-160.464 0-290.544 130.08-290.544 290.544 0 160.464 130.08 290.544 290.544 290.544 160.464 0 290.544-130.08 290.544-290.544 0-160.448-130.08-290.544-290.544-290.544zM472 645.328v-208s13.328-34.672 40-34.672h144s73.328 36 0 73.328l-97.328 1.328s-22.672-13.328-22.672 24l1.328 144c0 0.016-30.656 45.36-65.328 0.016z"  horiz-adv-x="1024" />

    
    <glyph glyph-name="lixian" unicode="&#58902;" d="M932.90496 827.88352H84.25472c-44.6464 0-80.85504-38.01088-80.85504-84.82816v-532.02944c0-46.8992 36.20864-84.86912 80.85504-84.86912h288.03072v-97.97632H315.22816v-64.26624h-73.728v-82.78016h534.07744v82.78016h-73.64608v64.26624h-57.09824v97.97632h288.03072c44.6464 0 80.85504 38.01088 80.85504 84.86912V743.05536c0.04096 46.81728-36.16768 84.82816-80.81408 84.82816z m-7.53664-615.8336H91.79136V741.94944h833.57696v-529.89952zM670.80192 613.41696l-53.61664 54.31296-108.58496-110.05952-108.62592 110.05952-53.61664-54.31296 108.62592-110.05952-108.62592-110.10048L399.9744 338.944l108.62592 110.05952 108.58496-110.05952 53.61664 54.31296-108.62592 110.10048z"  horiz-adv-x="1024" />

    
    <glyph glyph-name="zaixian" unicode="&#58905;" d="M936.3456 852.95104H87.69536c-44.6464 0-80.85504-38.01088-80.85504-84.82816v-532.02944c0-46.8992 36.20864-84.86912 80.85504-84.86912h288.03072v-97.97632H318.6688v-64.26624h-73.728v-82.78016h534.1184v82.78016h-73.64608v64.26624h-57.09824v97.97632h288.03072c44.6464 0 80.85504 38.01088 80.85504 84.86912V768.12288c0 46.81728-36.20864 84.82816-80.85504 84.82816z m-7.53664-615.8336H95.232V767.05792h833.57696v-529.94048zM715.3664 627.9168l-54.39488 54.39488-198.16448-198.16448L363.1104 583.8848 308.71552 529.48992l154.91072-154.91072 54.35392 54.35392-0.8192 0.86016z"  horiz-adv-x="1024" />

    
    <glyph glyph-name="product_consumed" unicode="&#59067;" d="M789.504 330.752h-37.888a19.456 19.456 0 0 1-19.456-18.432v-128a19.456 19.456 0 0 0-19.456-19.456H290.816a19.456 19.456 0 0 0-19.456 19.456V312.32a19.456 19.456 0 0 1-19.456 19.456h-37.888A19.456 19.456 0 0 1 194.56 312.32v-173.056a51.2 51.2 0 0 1 51.2-51.2h512a51.2 51.2 0 0 1 51.2 51.2V312.32a19.456 19.456 0 0 1-19.456 18.432z m-300.032-83.968a18.432 18.432 0 0 1 26.624 0l173.056 173.056a18.432 18.432 0 0 1 0 26.624l-27.648 26.624a18.432 18.432 0 0 1-26.624 0l-71.68-71.68a13.312 13.312 0 0 0-21.504 9.216V683.008a23.552 23.552 0 0 1-20.48 19.456h-38.912a19.456 19.456 0 0 1-18.432-19.456v-271.36a13.312 13.312 0 0 0-22.528-9.216l-71.68 71.68a18.432 18.432 0 0 1-26.624 0l-26.624-27.648a18.432 18.432 0 0 1 0-27.648z"  horiz-adv-x="1024" />

    
    <glyph glyph-name="alarm-warning-line" unicode="&#59177;" d="M170.666667 42.666667v256a341.333333 341.333333 0 1 0 682.666666 0v-256h42.666667v-85.333334H128v85.333334h42.666667z m85.333333 0h512v256a256 256 0 1 1-512 0v-256z m213.333333 768h85.333334v-128h-85.333334V810.666667z m374.528-119.808l60.330667-60.330667-90.453333-90.496-60.373334 60.330667 90.496 90.496zM119.808 630.528l60.330667 60.330667 90.496-90.453334L210.346667 539.989333 119.808 630.528zM298.666667 298.666667a213.333333 213.333333 0 0 0 213.333333 213.333333v-85.333333a128 128 0 0 1-128-128H298.666667z"  horiz-adv-x="1024" />

    
    <glyph glyph-name="icon-test1" unicode="&#58940;" d="M192 448c0 141.152 114.848 256 256 256s256-114.848 256-256-114.848-256-256-256-256 114.848-256 256z m710.624-409.376l-206.88 206.88A318.784 318.784 0 0 1 768 448c0 176.736-143.264 320-320 320S128 624.736 128 448s143.264-320 320-320a318.784 318.784 0 0 1 202.496 72.256l206.88-206.88 45.248 45.248z"  horiz-adv-x="1024" />

    
    <glyph glyph-name="icons-speed" unicode="&#58964;" d="M480 832A416.32 416.32 0 0 1 64 416a416.192 416.192 0 0 1 186.24-346.752l8-5.248h443.52l8 5.248A416.192 416.192 0 0 1 896 416C896 645.504 709.504 832 480 832z m0-64C674.752 768 832 610.752 832 416c0-120-60.992-224.512-152.768-288h-398.72C188.992 191.488 128 296 128 416 128 610.752 285.248 768 480 768z m0-64c-17.728 0-32-14.272-32-32s14.272-32 32-32 32 14.272 32 32-14.272 32-32 32z m191.232-63.744a32.448 32.448 0 0 1-21.952-9.728l-191.808-192a31.872 31.872 0 1 1 45.056-45.056l192.192 192a32.192 32.192 0 0 1 7.04 35.264 32.64 32.64 0 0 1-30.528 19.52zM288 640c-17.728 0-32-14.272-32-32s14.272-32 32-32 32 14.272 32 32-14.272 32-32 32z m-64-192c-17.728 0-32-14.272-32-32s14.272-32 32-32 32 14.272 32 32-14.272 32-32 32z m512 0c-17.728 0-32-14.272-32-32s14.272-32 32-32 32 14.272 32 32-14.272 32-32 32z m-448-192c-17.728 0-32-14.272-32-32s14.272-32 32-32 32 14.272 32 32-14.272 32-32 32z m384 0c-17.728 0-32-14.272-32-32s14.272-32 32-32 32 14.272 32 32-14.272 32-32 32z"  horiz-adv-x="1024" />

    
    <glyph glyph-name="compress" unicode="&#59668;" d="M326 232H104c-8.8 0-16-7.2-16-16v-48c0-8.8 7.2-16 16-16h174v-176c0-8.8 7.2-16 16-16h48c8.8 0 16 7.2 16 16V200c0 17.7-14.3 32-32 32zM342 808h-48c-8.8 0-16-7.2-16-16v-176H104c-8.8 0-16-7.2-16-16v-48c0-8.8 7.2-16 16-16h222c17.7 0 32 14.3 32 32V792c0 8.8-7.2 16-16 16zM920 232H698c-17.7 0-32-14.3-32-32v-224c0-8.8 7.2-16 16-16h48c8.8 0 16 7.2 16 16V152h174c8.8 0 16 7.2 16 16v48c0 8.8-7.2 16-16 16zM920 616H746V792c0 8.8-7.2 16-16 16h-48c-8.8 0-16-7.2-16-16v-224c0-17.7 14.3-32 32-32h222c8.8 0 16 7.2 16 16v48c0 8.8-7.2 16-16 16z"  horiz-adv-x="1024" />

    
    <glyph glyph-name="expend" unicode="&#59669;" d="M342 808H120c-17.7 0-32-14.3-32-32v-224c0-8.8 7.2-16 16-16h48c8.8 0 16 7.2 16 16V728h174c8.8 0 16 7.2 16 16v48c0 8.8-7.2 16-16 16zM920 232h-48c-8.8 0-16-7.2-16-16v-176H682c-8.8 0-16-7.2-16-16v-48c0-8.8 7.2-16 16-16h222c17.7 0 32 14.3 32 32V216c0 8.8-7.2 16-16 16zM342 40H168V216c0 8.8-7.2 16-16 16h-48c-8.8 0-16-7.2-16-16v-224c0-17.7 14.3-32 32-32h222c8.8 0 16 7.2 16 16v48c0 8.8-7.2 16-16 16zM904 808H682c-8.8 0-16-7.2-16-16v-48c0-8.8 7.2-16 16-16h174v-176c0-8.8 7.2-16 16-16h48c8.8 0 16 7.2 16 16V776c0 17.7-14.3 32-32 32z"  horiz-adv-x="1024" />

    
    <glyph glyph-name="location" unicode="&#59124;" d="M512 614c-81.06 0-147-65.94-147-147s65.94-147 147-147 147 65.94 147 147-65.94 147-147 147z m0-230a83 83 0 1 0 83 83 83.09 83.09 0 0 0-83-83zM855.83 626.17c-28.09 63.21-72.26 117.2-127.74 156.14C668.76 823.95 597.91 847 523.21 848.86c-7.39 0.19-15 0.19-22.41 0-74.71-1.86-145.56-24.91-204.89-66.55-55.48-38.94-99.65-92.93-127.74-156.14a380.39 380.39 0 0 1-30.36-201.1c9-72.6 39.62-141.15 88.62-198.26l250.08-291.49a46.76 46.76 0 0 1 71 0l250.08 291.5c49 57.11 79.64 125.66 88.62 198.26a380.39 380.39 0 0 1-30.38 201.09zM810.77 434.4c-7.14-57.71-31.65-112.38-70.88-158.1L512 10.67 284.11 276.3c-39.23 45.7-63.74 100.39-70.88 158.1a304.56 304.56 0 0 0 24.39 160.91c22.5 50.62 57.75 93.77 101.95 124.79 47 33 103.46 51.27 163.17 52.78 3.05 0.08 6.16 0.12 9.26 0.12s6.21 0 9.27-0.12c59.7-1.51 116.12-19.76 163.16-52.78 44.2-31 79.45-74.17 102-124.79a304.56 304.56 0 0 0 24.34-160.91z"  horiz-adv-x="1024" />

    
    <glyph glyph-name="equipment" unicode="&#58883;" d="M448 480h-64a32 32 0 1 0 0 64h64a32 32 0 1 0 0-64z m320-256H256a32 32 0 0 0 0 64h512a32 32 0 0 0 0-64z m0-128H256a32 32 0 0 0 0 64h512a32 32 0 0 0 0-64z m-32 256H288a64 64 0 0 0-64 64V608a64 64 0 0 0 64 64h448a64 64 0 0 0 64-64v-192a64 64 0 0 0-64-64zM288 608v-192h448V608H288z"  horiz-adv-x="1024" />

    
    <glyph glyph-name="attendance" unicode="&#58949;" d="M342.272 640a42.666667 42.666667 0 1 0 0 85.333333h339.456a42.666667 42.666667 0 0 0 0-85.333333H342.272z m470.784 0a42.666667 42.666667 0 0 0 0 85.333333H938.666667a85.333333 85.333333 0 0 0 85.333333-85.333333v-640a85.333333 85.333333 0 0 0-85.333333-85.333333H85.333333a85.333333 85.333333 0 0 0-85.333333 85.333333V640a85.333333 85.333333 0 0 0 85.333333 85.333333h128.725334a42.666667 42.666667 0 1 0 0-85.333333H85.333333v-640h853.333334V640h-125.610667zM298.666667 768a42.666667 42.666667 0 1 0 85.333333 0v-170.666667a42.666667 42.666667 0 1 0-85.333333 0V768z m341.333333 0a42.666667 42.666667 0 0 0 85.333333 0v-170.666667a42.666667 42.666667 0 0 0-85.333333 0V768z m36.309333-303.36a42.666667 42.666667 0 1 0 59.306667-61.312l-273.621333-263.338667a42.666667 42.666667 0 0 0-60.501334 1.152l-133.632 141.44a42.666667 42.666667 0 0 0 61.610667 59.050667l104.021333-110.506667 242.773334 233.514667h0.042666z"  horiz-adv-x="1024" />

    
    <glyph glyph-name="userConfig" unicode="&#58945;" d="M994.489288 707.491841L517.494946 508.93278 39.292616 707.492841 516.377957 896zM0.009 624.922647l475.968352-203.030017V-127.99q-56.784445 25.59975-117.851849 53.526477-52.409488 23.365772-118.410844 52.409488l-132.745704 58.089433a165.979379 165.979379 0 0 0-43.659573 29.508712 218.295868 218.295868 0 0 0-33.79167 40.121608 185.435189 185.435189 0 0 0-21.875787 46.545546 160.76643 160.76643 0 0 0-7.633925 47.754533V624.922647z m1023.99 0v-422.722872a150.619529 150.619529 0 0 0-10.891894-55.853454 249.015568 249.015568 0 0 0-27.927727-51.292499 244.267615 244.267615 0 0 0-37.235636-42.356587 195.488091 195.488091 0 0 0-40.400606-28.484721L786.525319-27.080986q-63.300382-26.809738-116.827859-49.15152-62.742387-27.182735-122.785801-51.758494V421.89263z m0 0"  horiz-adv-x="1024" />

    
    <glyph glyph-name="close-small" unicode="&#58880;" d="M521.69386699 446.70293297L111.41119999 856.98560003a51.19999999 51.19999999 0 1 1-72.430933-72.36266703l410.28266601-410.31680005-410.28266599-410.31679992a51.19999999 51.19999999 0 1 1 72.39679999-72.39680003l410.31679999 410.28266699 410.31679998-410.28266699a51.19999999 51.19999999 0 1 1 72.39680003 72.36266701l-410.28266699 410.350933 410.28266699 410.282667a51.19999999 51.19999999 0 1 1-72.39680003 72.39680002l-410.282667-410.282667z"  horiz-adv-x="1024" />

    
    <glyph glyph-name="video1" unicode="&#58938;" d="M553.239273 121.809455l45.009454-77.172364a45.614545 45.614545 0 0 0-16.756363-62.603636 46.498909 46.498909 0 0 0-63.208728 16.942545L447.674182 120.087273a45.614545 45.614545 0 0 0-0.930909 1.722182H349.696a46.452364 46.452364 0 0 0-0.930909-1.722182l-70.656-121.111273a46.498909 46.498909 0 0 0-63.162182-16.942545 45.614545 45.614545 0 0 0-16.802909 62.603636l45.009455 77.172364h-41.937455A154.717091 154.717091 0 0 0 46.545455 276.48V555.101091A154.717091 154.717091 0 0 0 201.262545 709.818182h378.600728a154.763636 154.763636 0 0 0 152.855272-130.466909l152.808728 67.677091c64.930909 28.718545 119.482182-21.410909 119.482182-92.253091v-294.632728c0-70.842182-54.551273-121.018182-119.482182-92.25309l-156.020364 69.073454a154.763636 154.763636 0 0 0-149.643636-115.153454h-26.624z m181.341091 353.140363v-134.981818c0 4.887273 0.465455 3.909818 3.258181 0.977455 5.771636-6.190545 14.289455-12.148364 23.133091-16.104728l150.900364-66.839272 0.046545 2.14109V554.821818v2.094546L760.925091 490.123636c-8.843636-3.956364-17.361455-9.960727-23.133091-16.104727-2.792727-2.932364-3.258182-3.909818-3.258182 0.930909z m-93.090909 0V555.101091c0 34.024727-27.601455 61.626182-61.626182 61.626182H201.262545C167.237818 616.727273 139.636364 589.125818 139.636364 555.101091v-278.574546c0-34.071273 27.601455-61.626182 61.626181-61.626181h378.600728c34.024727 0 61.626182 27.554909 61.626182 61.626181V474.949818zM256 337.454545h231.424a46.545455 46.545455 0 1 0 0-93.090909H256a46.545455 46.545455 0 1 0 0 93.090909z"  horiz-adv-x="1024" />

    
    <glyph glyph-name="jiashiqi" unicode="&#58892;" d="M121.6 354.8c0 96.9 0.3 193.8-0.1 290.7-0.3 68.6 15.3 133.3 43.5 195.4 3.6 7.9 7.5 15.7 11.6 23.3 5.9 10.9 15.4 16.6 27.7 17.6 2.3 0.2 4.5 0.1 6.8 0.1 195.3 0 390.6 0 585.9 0.1 12.9 0 23.3-4.4 32.6-13 27.6-25.3 44.9-56.7 56.9-91.6 8.8-25.5 13.5-51.7 15.3-78.6 1.1-16.6 1.3-33.2 1.3-49.8v-367.3c0-4 0.2-8 1.1-12 0.9-3.7 1.1-7.6 0.2-11.2-1.4-5.6-1.3-11.2-1.3-16.9 0-62.3-0.1-124.6 0-186.9 0-35.4-7.7-68.9-23.9-100.3-10.8-20.9-24.4-39.8-41.4-56.3-5.5-5.4-11.5-9.3-19-10.6-2.3-0.4-4.8-0.5-7.1-0.5-21.6 0-43.3 0.1-64.9-0.1-8.7-0.1-16.3 2.5-23.1 7.9-12.4 9.7-24.9 19.3-37.2 29-2.1 1.6-4.2 2.5-6.9 2.5H329.3c-2.8 0-5-0.9-7.1-2.7-11.4-9.9-22.9-19.7-34.5-29.3-5.7-4.7-12.4-7.2-19.8-7.2h-62.3c-9.7 0-17.8 3.9-24.4 11-15 16.2-27.2 34.3-36.7 54.2-11.7 24.6-19.5 50.4-21.7 77.7-0.8 9.5-1.3 19.1-1.3 28.6 0.1 98.7 0.1 197.5 0.1 296.2z m390.7-57.3h320.2c1.9-0.1 2.7 0.9 2.7 2.8v4.2 348.4c0 11.9 0 23.9-0.6 35.8-1.4 24.9-5.7 49.2-14 72.7-6.2 17.6-15.2 33.7-27.1 48-2.3 2.7-4.5 4.9-8.7 4.9-184.2-0.1-368.4-0.1-552.7 0-3.7 0-5.4-1.3-6.7-4.5-7.7-18.3-15-36.8-20.5-55.9-9.1-31.6-15-63.6-15-96.6 0.1-118 0-236.1 0-354.1 0-5.7 0-5.7 5.8-5.7h316.6z m0.4-67.7H195.6c-5.9 0-5.9 0-5.9-6v-173.3c0-4.9 0.2-9.8 0.6-14.7 2.5-29 13.5-54.7 29.8-78.4 1.4-2 2.9-2.8 5.3-2.8 7.8 0.1 15.6 0.3 23.4-0.1 4-0.2 6.9 1.2 9.8 3.8 9.6 8.4 19.4 16.4 28.8 24.9 8.5 7.6 18 10.9 29.6 10.8 114.9-0.2 229.7-0.1 344.6-0.2h34.7c6.6 0 12.7-2 17.9-6 13.7-10.5 27.3-21 40.9-31.6 1.6-1.3 3.3-1.6 5.2-1.6 11.4 0 22.9 0.1 34.3 0 2.5 0 4.3 0.8 5.8 2.7 21.8 27.9 34.7 58.9 34.6 94.9-0.3 57.2-0.1 114.5-0.1 171.7 0 5.8 0 5.8-5.7 5.8-105.4 0.1-211 0.1-316.5 0.1zM512.3 713c-26.3 0-52.6 0.4-78.9-0.2-16.8-0.4-34.5 12.2-35.2 32.9-0.6 18.3 13 33.4 31.7 34.8 0.8 0.1 1.5 0.1 2.3 0.1 53.6 0 107.2 0.1 160.7-0.1 13.8 0 24.1-6.7 30.2-19 11-22.1-5.1-48.2-29.7-48.5h-81.1zM512.2 10.6c-51-1-95.1 42.2-96.1 94.2-1 52.5 41.3 96.9 92.9 98.2 53.1 1.4 98.4-39.5 99.6-94.1 1.3-54.5-42.7-98.5-96.4-98.3z m28.4 96.2c0 15.9-12.2 28.1-28.1 28.2-16 0-28.3-12.1-28.3-27.9-0.1-16 12.4-28.6 28.3-28.5 15.7-0.1 28.1 12.4 28.1 28.2z"  horiz-adv-x="1024" />

    


  </font>
</defs>
</svg>
